<svg xmlns="http://www.w3.org/2000/svg" viewBox="0 0 820 886" width="820" height="886">
  <rect x="0" y="0" width="820" height="886" fill="#F5B82E"/>
  <g transform="translate(110,120) scale(6.0)">
    <path d="M26.6,0.1 L26.8,0.8 L28.0,1.0 L28.1,1.8 L28.6,2.2 L29.4,2.6 L30.3,2.5 L30.7,3.1 L31.1,3.0 L31.3,2.5 L32.2,2.3 L35.6,3.2 L36.3,3.7 L36.8,3.3 L37.8,3.5 L38.3,4.0 L39.3,3.9 L39.7,5.6 L39.5,6.4 L40.4,6.5 L40.8,6.1 L42.1,6.5 L42.1,7.8 L42.5,8.3 L41.6,8.8 L41.7,9.0 L42.5,9.1 L42.7,8.8 L43.1,9.3 L44.3,9.1 L45.6,9.5 L47.8,11.3 L48.6,11.0 L48.2,10.4 L49.0,9.4 L49.4,8.0 L49.1,7.4 L50.7,7.9 L50.8,8.6 L51.0,8.4 L52.1,8.4 L53.1,9.4 L53.8,9.4 L54.7,10.3 L55.9,9.8 L55.9,9.2 L56.4,8.9 L56.7,9.7 L57.8,10.1 L58.5,8.5 L60.5,8.2 L61.6,7.6 L63.1,8.4 L64.3,10.0 L65.6,10.4 L66.3,11.1 L67.1,13.0 L66.6,14.3 L66.8,15.1 L65.8,16.9 L66.3,18.4 L64.2,20.0 L64.5,21.5 L65.9,21.3 L66.2,21.7 L66.7,25.8 L65.6,26.7 L65.7,27.2 L66.8,28.0 L68.1,28.1 L68.9,29.2 L70.5,30.3 L71.5,29.8 L72.4,30.3 L72.8,29.7 L74.4,29.3 L76.1,32.4 L76.8,32.0 L77.1,32.4 L78.8,31.6 L80.2,31.8 L80.7,32.6 L83.2,34.2 L83.7,35.3 L84.9,36.2 L84.7,36.7 L85.6,36.9 L85.2,37.4 L86.0,39.4 L87.1,40.7 L85.7,41.5 L85.7,42.6 L87.2,42.8 L87.8,42.2 L87.8,41.1 L88.1,41.1 L88.8,41.3 L89.0,41.7 L88.5,42.0 L88.8,43.5 L90.0,43.4 L91.6,42.6 L90.9,44.9 L92.1,49.0 L92.3,51.9 L93.2,52.3 L94.2,51.9 L94.7,52.6 L93.5,53.5 L93.1,53.2 L91.9,53.1 L91.5,52.4 L89.3,53.4 L89.5,54.2 L89.3,54.8 L89.8,54.9 L89.9,55.8 L88.7,55.9 L88.4,56.2 L88.6,56.7 L91.4,56.8 L92.6,58.7 L94.5,59.1 L95.2,58.6 L95.6,59.5 L96.0,59.6 L95.7,60.1 L96.4,60.1 L96.3,60.5 L96.8,60.8 L97.1,60.4 L99.7,61.4 L100.0,62.3 L98.8,63.7 L96.8,63.5 L96.4,64.4 L96.7,65.2 L96.4,65.8 L94.1,66.2 L93.4,65.9 L92.9,66.8 L90.1,66.1 L90.2,67.6 L89.2,67.5 L88.9,68.4 L89.1,69.7 L88.3,70.5 L85.7,69.5 L84.8,69.4 L83.6,69.8 L84.0,69.0 L81.8,67.7 L81.4,68.2 L80.2,68.5 L80.0,69.8 L79.2,70.2 L79.0,70.7 L78.4,70.5 L77.9,69.2 L77.6,69.2 L77.1,69.8 L77.6,71.1 L76.5,72.0 L78.6,72.6 L79.7,73.2 L79.9,72.5 L80.5,72.7 L80.7,72.4 L82.4,73.4 L82.0,73.8 L82.2,74.3 L81.5,74.6 L81.4,75.5 L82.6,76.5 L81.6,77.1 L79.0,76.5 L79.0,75.9 L77.0,74.7 L76.9,75.1 L77.6,75.2 L76.9,75.9 L76.8,75.1 L75.5,74.4 L75.4,72.7 L74.7,71.9 L74.8,71.5 L74.6,71.3 L74.1,71.5 L72.8,71.2 L72.4,70.4 L72.2,71.0 L71.1,71.7 L70.0,71.7 L69.9,72.2 L69.0,72.1 L68.6,73.5 L68.1,73.5 L67.6,74.7 L68.8,75.0 L69.4,76.3 L69.0,77.7 L68.4,78.4 L67.6,78.7 L66.7,80.2 L65.4,80.4 L64.6,78.9 L64.0,78.6 L63.2,79.0 L62.1,78.0 L61.4,78.3 L60.9,79.0 L59.8,78.9 L58.7,79.8 L57.8,79.4 L56.4,80.4 L54.1,80.8 L53.4,81.7 L49.5,82.0 L48.4,84.0 L48.9,84.7 L48.3,85.0 L48.3,87.2 L48.9,87.7 L48.4,90.4 L47.0,90.8 L46.1,90.2 L45.7,90.5 L43.4,90.0 L42.8,90.8 L40.8,91.4 L41.3,92.6 L41.2,93.4 L40.5,93.8 L40.1,92.4 L39.1,92.4 L39.2,94.2 L38.0,95.3 L36.8,95.7 L35.4,95.1 L34.6,94.0 L33.6,93.8 L32.2,94.9 L28.7,94.1 L26.7,95.0 L26.3,95.6 L25.1,95.3 L24.9,97.5 L23.3,98.1 L23.0,99.4 L22.0,99.5 L22.0,99.9 L20.7,99.8 L19.5,98.2 L18.9,99.3 L16.0,98.2 L15.2,98.8 L13.9,99.0 L11.9,98.5 L10.4,98.7 L9.2,97.9 L6.8,97.7 L6.8,95.7 L6.3,95.0 L6.6,94.0 L6.3,93.8 L6.8,93.3 L6.2,93.0 L6.1,91.9 L6.5,90.5 L6.8,90.3 L6.3,90.3 L6.2,89.7 L6.6,89.2 L7.4,89.4 L8.0,88.5 L8.9,88.8 L8.8,87.5 L8.2,87.6 L6.2,86.5 L4.5,87.0 L2.8,86.5 L1.3,85.9 L0.0,84.4 L1.4,84.3 L1.5,83.8 L3.3,84.0 L3.5,83.3 L4.5,83.1 L4.5,82.5 L3.8,82.0 L4.6,82.0 L5.7,81.3 L5.3,80.8 L5.9,80.0 L4.9,80.2 L4.5,79.6 L5.7,79.1 L5.8,78.4 L5.0,78.5 L4.7,78.2 L5.0,76.6 L5.9,76.6 L5.4,75.6 L5.3,73.6 L5.7,73.4 L5.6,72.5 L6.0,72.2 L6.0,71.5 L6.5,71.1 L5.6,68.8 L4.2,68.4 L3.1,67.6 L3.3,66.7 L3.9,66.7 L4.1,66.3 L3.5,66.0 L4.5,65.6 L5.4,64.6 L4.9,64.3 L5.4,63.3 L5.3,62.3 L6.0,62.4 L6.1,62.8 L7.2,62.4 L7.1,62.0 L7.4,61.5 L6.8,61.3 L6.8,60.9 L7.4,60.6 L8.3,60.9 L8.3,60.3 L9.3,60.5 L9.3,59.9 L10.0,59.8 L10.3,59.1 L10.3,59.7 L11.1,59.8 L11.2,59.3 L10.4,58.7 L8.8,58.4 L8.8,57.6 L7.7,57.9 L7.2,57.4 L6.6,58.2 L6.3,57.5 L5.1,57.2 L5.3,54.4 L7.6,53.7 L8.1,53.1 L8.2,52.7 L6.6,52.2 L7.2,51.2 L7.8,51.4 L8.3,50.0 L8.9,50.1 L8.6,49.2 L9.4,49.3 L9.4,48.5 L9.7,48.3 L9.5,48.0 L9.7,47.8 L10.1,48.2 L10.3,47.7 L10.1,47.0 L9.6,47.1 L9.1,46.5 L8.6,46.7 L8.4,46.2 L7.8,46.1 L7.6,45.6 L8.9,44.7 L8.8,43.2 L8.0,42.2 L8.6,41.6 L8.2,41.0 L9.0,40.1 L7.7,39.8 L8.2,39.2 L7.0,38.5 L7.1,37.9 L7.7,37.5 L7.9,36.8 L7.2,36.5 L7.1,36.2 L8.6,36.0 L7.7,35.5 L8.2,35.5 L8.3,35.1 L9.0,35.3 L9.0,34.8 L8.6,34.6 L8.9,34.2 L8.8,33.5 L9.6,33.4 L9.7,33.7 L10.1,33.4 L10.3,34.0 L11.4,33.4 L12.3,33.4 L12.6,32.6 L12.1,30.7 L12.7,29.8 L13.0,29.7 L13.5,30.3 L14.8,27.3 L17.4,26.7 L17.4,26.3 L16.3,25.8 L15.9,24.9 L14.9,24.7 L15.2,23.8 L14.3,23.8 L14.3,23.0 L13.1,23.0 L12.9,21.7 L12.9,21.0 L13.8,21.3 L14.0,19.9 L14.6,20.4 L15.0,20.3 L14.6,19.2 L15.3,18.1 L15.0,17.9 L15.6,16.3 L16.3,16.2 L16.4,15.9 L15.4,15.6 L15.4,15.1 L16.5,14.8 L17.4,14.1 L19.0,15.3 L19.1,15.7 L19.7,15.9 L19.7,16.6 L20.1,16.7 L20.6,16.3 L20.9,16.7 L21.6,16.4 L22.2,16.9 L23.0,16.7 L23.4,14.8 L22.9,14.0 L23.3,12.9 L23.0,12.4 L23.5,12.6 L23.9,12.0 L24.7,12.0 L25.3,11.3 L26.1,11.3 L25.9,9.2 L25.4,9.0 L26.1,8.6 L26.2,7.7 L25.8,6.7 L25.1,6.2 L25.5,5.6 L26.3,5.6 L27.1,5.1 L27.6,3.5 L27.4,2.8 L26.9,2.6 L26.9,2.0 L25.7,1.8 L26.2,0.1 Z" fill="#2D4CA8" stroke="#FFFFFF" stroke-width="1.2" stroke-linejoin="round"/>
  </g>
  <text x="410" y="560" font-family="Arial Black, Arial, sans-serif" font-size="170" font-weight="900" fill="#FFFFFF" text-anchor="middle" stroke="#2D4CA8" stroke-width="2">TRS</text>
</svg>